<svg width="11" height="12" viewBox="0 0 11 12" fill="none" xmlns="http://www.w3.org/2000/svg">
<path fill-rule="evenodd" clip-rule="evenodd" d="M2.4678 2.7744C2.2695 2.92009 1.99596 2.93205 1.80376 2.77841L0.996071 2.13273C0.764293 1.94745 0.743042 1.60067 0.969968 1.40948C2.01384 0.529963 3.3619 0 4.83373 0C8.14744 0 10.8337 2.68629 10.8337 6C10.8337 9.31371 8.14744 12 4.83373 12C3.36189 12 2.01383 11.47 0.969967 10.5905C0.743041 10.3993 0.764292 10.0526 0.99607 9.86727L1.80376 9.22159C1.99596 9.06795 2.2695 9.07991 2.4678 9.2256C3.1304 9.71243 3.94848 10 4.83373 10C7.04287 10 8.83373 8.20914 8.83373 6C8.83373 3.79086 7.04287 2 4.83373 2C3.94848 2 3.1304 2.28757 2.4678 2.7744ZM4.83374 8C5.93831 8 6.83374 7.10457 6.83374 6C6.83374 4.89543 5.93831 4 4.83374 4C3.72917 4 2.83374 4.89543 2.83374 6C2.83374 7.10457 3.72917 8 4.83374 8Z" fill="#F2F2F2"/>
</svg>
