<svg width="95" height="13" viewBox="0 0 95 13" fill="none" xmlns="http://www.w3.org/2000/svg">
<g opacity="0.2">
<rect y="6.10001" width="84.9768" height="1" rx="0.5" fill="#F2F2F2"/>
<path fill-rule="evenodd" clip-rule="evenodd" d="M86.6341 3.37441C86.4358 3.5201 86.1622 3.53206 85.97 3.37841L85.1623 2.73274C84.9306 2.54745 84.9093 2.20068 85.1362 2.00948C86.1801 1.12997 87.5282 0.600006 89 0.600006C92.3137 0.600006 95 3.2863 95 6.60001C95 9.91371 92.3137 12.6 89 12.6C87.5282 12.6 86.1801 12.07 85.1362 11.1905C84.9093 10.9993 84.9306 10.6526 85.1623 10.4673L85.97 9.8216C86.1622 9.66795 86.4358 9.67991 86.6341 9.82561C87.2967 10.3124 88.1147 10.6 89 10.6C91.2091 10.6 93 8.80914 93 6.60001C93 4.39087 91.2091 2.60001 89 2.60001C88.1147 2.60001 87.2967 2.88758 86.6341 3.37441ZM89 8.60001C90.1046 8.60001 91 7.70458 91 6.60001C91 5.49544 90.1046 4.60001 89 4.60001C87.8954 4.60001 87 5.49544 87 6.60001C87 7.70458 87.8954 8.60001 89 8.60001Z" fill="#F2F2F2"/>
</g>
</svg>
